<svg width="85" height="24" viewBox="0 0 85 24" xmlns="http://www.w3.org/2000/svg">
    <g fill="none" fill-rule="evenodd">
        <path d="M73 4.5c2.071 0 3.946.84 5.303 2.197A7.477 7.477 0 0 1 80.5 12c0 2.071-.84 3.946-2.197 5.303A7.477 7.477 0 0 1 73 19.5c-1.55 0-2.99-.47-4.186-1.276a7.522 7.522 0 0 1-2.887-3.723H48.073a7.522 7.522 0 0 1-2.887 3.723A7.464 7.464 0 0 1 41 19.5c-1.55 0-2.99-.47-4.186-1.276a7.522 7.522 0 0 1-2.887-3.723H15.073a7.522 7.522 0 0 1-2.887 3.723A7.464 7.464 0 0 1 8 19.5a7.477 7.477 0 0 1-5.303-2.197A7.477 7.477 0 0 1 .5 12c0-2.071.84-3.946 2.197-5.303A7.477 7.477 0 0 1 8 4.5c1.55 0 2.99.47 4.186 1.276A7.522 7.522 0 0 1 15.073 9.5h18.854a7.522 7.522 0 0 1 2.887-3.724A7.464 7.464 0 0 1 41 4.5c1.55 0 2.99.47 4.186 1.276A7.522 7.522 0 0 1 48.073 9.5h17.854a7.522 7.522 0 0 1 2.887-3.724A7.464 7.464 0 0 1 73 4.5z" fill="#4B4B4B" stroke="#4DC3FF"/>
        <circle fill="#FFF" cx="73" cy="12" r="12"/>
    </g>
</svg>
